<?xml version="1.0" encoding="utf-8"?>
<!-- Generator: Adobe Illustrator 15.0.0, SVG Export Plug-In . SVG Version: 6.00 Build 0)  -->
<!DOCTYPE svg PUBLIC "-//W3C//DTD SVG 1.1//EN" "http://www.w3.org/Graphics/SVG/1.1/DTD/svg11.dtd">
<svg version="1.1" id="Layer_1" xmlns="http://www.w3.org/2000/svg" xmlns:xlink="http://www.w3.org/1999/xlink" x="0px" y="0px"
	 width="280.63px" height="198.43px" viewBox="0 0 280.63 198.43" enable-background="new 0 0 280.63 198.43" xml:space="preserve">
<path id="_x23_innovationGaugeArc1" fill="#923933" d="M40,142.156c0-35.353,18.667-68.078,49.096-86.074l10.181,17.215
	C74.933,87.694,60,113.874,60,142.156H40z"/>
<path id="_x23_innovationGaugeHistogram1" opacity="0.3" fill="#923933" d="M89.547,142.156c0-17.836,9.417-34.348,24.77-43.427
	l19.574,33.098c-3.652,2.16-5.892,6.087-5.892,10.329H89.547z"/>
<path id="_x23_innovationGaugeArc2" fill="#F4B900" d="M89.096,56.082c31.396-18.568,70.412-18.568,101.809,0l-10.182,17.215
	c-25.116-14.854-56.329-14.854-81.446,0L89.096,56.082z"/>
<path id="_x23_innovationGaugeHistogram2" opacity="0.3" fill="#F4B900" d="M124.975,116.751c9.267-5.48,20.783-5.48,30.05,0
	l-8.917,15.076c-3.768-2.228-8.449-2.228-12.217,0L124.975,116.751z"/>
<path id="_x23_innovationGaugeArc3" fill="#00A54F" d="M190.904,56.082C221.334,74.078,240,106.804,240,142.156h-20
	c0-28.282-14.934-54.462-39.277-68.859L190.904,56.082z"/>
<path id="_x23_innovationGaugeHistogram3" opacity="0.3" fill="#00A54F" enable-background="new    " d="M150.706,124.054
	c6.399,3.784,10.325,10.667,10.325,18.103H152c0-4.242-2.24-8.169-5.892-10.329L150.706,124.054z"/>
<circle cx="140" cy="142.156" r="8"/>
<path d="M132.534,144.792l-31.882-79.199l46.1,71.859"/>
<circle cx="91.825" cy="54.525" r="3"/>
<path d="M94.454,53.08l4.597,14.59l-9.855-11.7"/>
<text transform="matrix(1 0 0 1 36.9814 34.188)" font-family="'MyriadPro-Regular'" font-size="14">average</text>
<line fill="none" stroke="#231F20" stroke-miterlimit="10" x1="77.92" y1="39.313" x2="88.857" y2="50.25"/>
<text transform="matrix(1 0 0 1 152.6875 170.8223)" font-family="'MyriadPro-Regular'" font-size="14">your score</text>
<line fill="none" stroke="#231F20" stroke-miterlimit="10" x1="146.75" y1="150.01" x2="157.688" y2="160.947"/>
<path id="_x23_innovationGaugeArc1_2_" fill="none" d="M97.611,71.964c-24.344,14.396-39.277,40.577-39.277,68.859"/>
<text transform="matrix(0.3769 -0.9263 0.9263 0.3769 60.3638 110.8926)"><tspan x="0" y="0" font-family="'MyriadPro-Regular'" font-size="14">l</tspan><tspan x="3.339" y="-0.071" font-family="'MyriadPro-Regular'" font-size="14" rotate="3.79">o</tspan><tspan x="11.086" y="0.375" font-family="'MyriadPro-Regular'" font-size="14" rotate="9.996">w</tspan></text>
<path id="_x23_innovationGaugeArc1_1_" fill="none" d="M178.936,70.633c-24.831-13.538-54.966-12.961-79.26,1.521"/>
<text transform="matrix(0.964 -0.2659 0.2659 0.964 112.8032 61.9307)"><tspan x="0" y="0" font-family="'MyriadPro-Regular'" font-size="14">m</tspan><tspan x="11.744" y="0.135" font-family="'MyriadPro-Regular'" font-size="14" rotate="6.459">e</tspan><tspan x="18.758" y="0.911" font-family="'MyriadPro-Regular'" font-size="14" rotate="11.597">d</tspan><tspan x="26.495" y="2.578" font-family="'MyriadPro-Regular'" font-size="14" rotate="15.439">i</tspan><tspan x="29.704" y="3.389" font-family="'MyriadPro-Regular'" font-size="14" rotate="19.225">u</tspan><tspan x="37.109" y="5.855" font-family="'MyriadPro-Regular'" font-size="14" rotate="25.927">m</tspan></text>
<path id="_x23_innovationGaugeArc1_3_" fill="none" d="M221.173,141.549c0.085-28.282-14.771-54.509-39.07-68.978"/>
<text transform="matrix(0.6073 0.7945 -0.7945 0.6073 205.1504 87.5088)"><tspan x="0" y="0" font-family="'MyriadPro-Regular'" font-size="14">h</tspan><tspan x="7.815" y="0.076" font-family="'MyriadPro-Regular'" font-size="14" rotate="3.82">i</tspan><tspan x="11.107" y="0.22" font-family="'MyriadPro-Regular'" font-size="14" rotate="7.634">g</tspan><tspan x="18.934" y="1.275" font-family="'MyriadPro-Regular'" font-size="14" rotate="13.025">h</tspan></text>
<text transform="matrix(1 0 0 1 74.564 126.7363)"><tspan x="0" y="0" fill="#58595B" font-family="'MyriadPro-Regular'" font-size="10">low score </tspan><tspan x="2.95" y="12" fill="#58595B" font-family="'MyriadPro-Regular'" font-size="10">projects</tspan></text>
<text transform="matrix(1 0 0 1 161.3203 126.7363)"><tspan x="0" y="0" fill="#58595B" font-family="'MyriadPro-Regular'" font-size="10">high score </tspan><tspan x="4.86" y="12" fill="#58595B" font-family="'MyriadPro-Regular'" font-size="10">projects</tspan></text>
<text transform="matrix(1 0 0 1 129.4106 79.0698)"><tspan x="0" y="0" fill="#58595B" font-family="'MyriadPro-Regular'" font-size="10">medium</tspan><tspan x="6.485" y="12" fill="#58595B" font-family="'MyriadPro-Regular'" font-size="10">score </tspan><tspan x="0.77" y="24" fill="#58595B" font-family="'MyriadPro-Regular'" font-size="10">projects</tspan></text>
</svg>
